<svg xmlns="http://www.w3.org/2000/svg" width="355" height="109" viewBox="0 0 355 109">
    <g fill="none" fill-rule="evenodd">
        <g opacity=".8">
            <path fill="#FFA101" d="M45.38 26.53v28.49L17.53 27.1a36.84 36.84 0 0 1 27.85-.57z"/>
            <path fill="#F7ED00" d="M60.5 43.95L42.28 62.24l.09-35.76A33.22 33.22 0 0 1 60.5 43.95z"/>
            <path fill="#B5DD01" d="M64.97 53.48c0 4.52-.83 9-2.46 13.23H34.03l27.92-27.85c2 4.6 3.03 9.59 3.02 14.62z"/>
            <path fill="#60C660" d="M62.56 64.04a33.23 33.23 0 0 1-17.45 18.14l-18.3-18.22 35.75.08z"/>
            <path fill="#668FD1" d="M49.84 83.62A36.83 36.83 0 0 1 22 84.2V55.7l27.84 27.92z"/>
            <path fill="#9869BC" d="M24.4 48.48l-.08 35.76A33.22 33.22 0 0 1 6.2 66.8l18.22-18.3z"/>
            <path fill="#D35F99" d="M33 43.67L5.1 71.52a36.72 36.72 0 0 1-.57-27.85H33z"/>
            <path fill="#E54838" d="M40.56 46.42H4.81a33.35 33.35 0 0 1 17.5-18.22l18.25 18.22z"/>
        </g>
        <path fill="#353F4F" d="M143.32 24.18h1c3.52-.14 6.91 2.4 7.1 6.16v1.33c0 2.3.05 3.97.05 3.97l-.13 28.45c0 3.46.47 6.37 1.4 8.74.83 2.17 2.1 4.14 3.73 5.8a16.5 16.5 0 0 0 5.53 3.31c2.2.68 4.5 1.02 6.81 1 3.36 0 6.26-.64 8.74-1.9a19 19 0 0 0 6.24-5.3c3.7-4.85 5.23-9.67 5.23-15.8v-9.03c.3-3.82 1.08-7.6 2.34-11.22l.26-.75a25.4 25.4 0 0 1 1.94-4c1.32-2.17 3.58-4.22 5.3-5.72 1.96-1.6 4.2-2.84 6.6-3.64 2.64-.94 5.42-1.4 8.21-1.37 2.96-.04 5.9.47 8.68 1.5 2.66.94 5.05 2.5 7 4.53a18.55 18.55 0 0 1 4.6 7.35 26.68 26.68 0 0 1 1.66 9.82v31.6c0 1 1.48 3.91 5.5 3.91 2.7-.03 4.8-1.07 5.3-3.9V.35h4.47v57.67l26.07-22.65c2.82-2.37 6.18-5.2 6.78-5.66 1.84-1.43 7.65-5.2 12.48-5.46 3.7-.2 7.94 2.14 10.29 6.13.79 1.32 1.9 3.64 2.95 5.92l17.58 43.94 20.24-56.06H352l-27.56 75.16a14.63 14.63 0 0 1-2.97 5.15c-2.32 2.61-5.22 3.75-8.6 3.92-1.64.16-3.29.24-4.94.24h-1.1v-4.67h1.1c1.64.01 3.29-.06 4.92-.23a7.62 7.62 0 0 0 3.26-.84 5.83 5.83 0 0 0 2.35-2.06 14.58 14.58 0 0 0 2.12-4l4.05-10.89-19.53-50.28c-3.99-7.45-9.27-12.4-24.06 1.94L268.2 48.84l29.55 38.86h-5.86L264.8 51.96l-13.9 12.02v15.48a10.42 10.42 0 0 1-.91 3.04 9.43 9.43 0 0 1-7.88 5.15c-.75.04-1.43-.02-1.6-.02a9.13 9.13 0 0 1-9.2-7.84c-.5-3.08-.12-11-.12-14.87v-6.56l-.03-10.6c0-3.47-.48-6.33-1.4-8.6-.8-2.2-2.12-4.18-3.83-5.78a13.4 13.4 0 0 0-5.52-3.33 19.76 19.76 0 0 0-6.73-1.14c-3.35 0-6.26.69-8.73 2.02a18.37 18.37 0 0 0-6.36 5.3c-3.63 4.79-5.11 11.14-5.11 17.16v7.7l-.06.66c-.29 4.4-.86 6.07-1.5 8.45-1.23 5.06-4.17 9.17-7.97 12.38-3.82 3.31-9.22 4.9-15.16 4.9-2.98.03-5.95-.43-8.78-1.36-2.61-.99-5-2.5-7-4.43a22.3 22.3 0 0 1-4.6-7.31 29.62 29.62 0 0 1-1.55-9.93V33.18c0-2.44-1.59-4.33-4.38-4.33H136.14v58.84h-4.47V28.85h-12.39v-4.67h12.4V11.75c0-2.55.45-4.7 1.26-6.3a8.48 8.48 0 0 1 3.19-3.42 9.94 9.94 0 0 1 4.15-1.44c1.32-.16 2.65-.24 3.98-.24.97-.02 1.94.06 2.9.24l3.09.67v4.41c-2.13-.38-4.28-.6-6.44-.66-3.62 0-5.45.73-6.24 1.73-.8 1-1.44 2.9-1.44 5.82v11.61l7.2.01z"/>
        <g transform="translate(0 .34)">
            <ellipse cx="33.69" cy="54.84" stroke="#353F4F" stroke-width="4.81" rx="31.28" ry="31.46"/>
            <path fill="#353F4F" d="M.34.34h4.13v56.73H.34z"/>
            <path fill="#353F4F" fill-rule="nonzero" d="M112.72 73.53c-1.23 2.66-2.74 4.18-4.54 5.79-3.55 3.19-8.39 4.79-14.5 4.8-3.73 0-7-.72-9.8-2.13a19.99 19.99 0 0 1-7.01-5.8c-1.86-2.44-3.03-5.27-3.98-8.5-.95-3.23-1.2-6.63-1.2-10.17v-.61h48.85c0-.33.02-.78.06-1.3.04-.5.06-.99.06-1.38a37.8 37.8 0 0 0-1.72-11.54 28.69 28.69 0 0 0-5.05-9.46 23.75 23.75 0 0 0-8.24-6.45 25.91 25.91 0 0 0-11.33-2.37c-4.67 0-8.72.89-12.16 2.66a25.52 25.52 0 0 0-8.6 7.1 30.68 30.68 0 0 0-5.15 10.28 43.17 43.17 0 0 0-1.72 12.24c-.03 4.18.53 8.34 1.67 12.36 1 3.61 2.7 6.99 5.04 9.93a23.97 23.97 0 0 0 8.41 6.62c3.36 1.62 7.3 2.43 11.8 2.43 7.35 0 13.26-1.9 17.73-5.7a26.03 26.03 0 0 0 6.42-8.8h-5.04zM73.06 43.67c.96-2.9 2.45-5.58 4.4-7.92a21.76 21.76 0 0 1 7-5.48c2.78-1.38 6-2.07 9.64-2.07 3.4 0 6.44.66 9.1 2a21.01 21.01 0 0 1 6.77 5.42c1.89 2.32 3.32 5 4.2 7.86a36.68 36.68 0 0 1 1.67 9.47H71.16c.25-3.16.89-6.28 1.9-9.28z"/>
        </g>
    </g>
</svg>
